<?xml version="1.0" encoding="UTF-8" standalone="no"?>
<svg width="75px" height="75px" viewBox="0 0 75 75" version="1.1" xmlns="http://www.w3.org/2000/svg" xmlns:xlink="http://www.w3.org/1999/xlink">
    <!-- Generator: Sketch 42 (36781) - http://www.bohemiancoding.com/sketch -->
    <title>Combined Shape</title>
    <desc>Created with Sketch.</desc>
    <defs>
        <path d="M33,67 C14.7746033,67 0,52.2253967 0,34 C0,15.7746033 14.7746033,1 33,1 C51.2253967,1 66,15.7746033 66,34 C66,52.2253967 51.2253967,67 33,67 Z M44.4666667,32.2666667 L26.6173333,32.2666667 L34.816,24.068 L32.7333333,22 L21,33.7333333 L32.7333333,45.4666667 L34.8013333,43.3986667 L26.6173333,35.2 L44.4666667,35.2 L44.4666667,32.2666667 Z" id="path-1"></path>
        <filter x="-50%" y="-50%" width="200%" height="200%" filterUnits="objectBoundingBox" id="filter-2">
            <feOffset dx="2" dy="2" in="SourceAlpha" result="shadowOffsetOuter1"></feOffset>
            <feGaussianBlur stdDeviation="2" in="shadowOffsetOuter1" result="shadowBlurOuter1"></feGaussianBlur>
            <feColorMatrix values="0 0 0 0 0   0 0 0 0 0   0 0 0 0 0  0 0 0 0.6 0" type="matrix" in="shadowBlurOuter1"></feColorMatrix>
        </filter>
    </defs>
    <g id="Symbols" stroke="none" stroke-width="1" fill="none" fill-rule="evenodd">
        <g id="Post-Navigation" transform="translate(-1079.000000, 3.000000)">
            <g transform="translate(-1.000000, -2.000000)" id="Forward-Arrow-Button-Copy">
                <g transform="translate(746.000000, 0.000000)">
                    <g id="backward" transform="translate(373.840000, 34.340000) scale(-1, 1) translate(-373.840000, -34.340000) translate(340.840000, 0.840000)">
                        <g id="Combined-Shape">
                            <use fill="black" fill-opacity="1" filter="url(#filter-2)" xlink:href="#path-1"></use>
                            <use fill="#812822" fill-rule="evenodd" xlink:href="#path-1"></use>
                        </g>
                    </g>
                </g>
            </g>
        </g>
    </g>
</svg>