<?xml version="1.0" encoding="UTF-8" standalone="no"?>
<svg width="22px" height="22px" viewBox="0 0 22 22" version="1.1" xmlns="http://www.w3.org/2000/svg" xmlns:xlink="http://www.w3.org/1999/xlink">
    <!-- Generator: Sketch 43.2 (39069) - http://www.bohemiancoding.com/sketch -->
    <title>Shape</title>
    <desc>Created with Sketch.</desc>
    <defs></defs>
    <g id="Desktop-HD" stroke="none" stroke-width="1" fill="none" fill-rule="evenodd">
        <g id="Careers-Posting---Desktop-HD" transform="translate(-776.000000, -795.000000)" fill-rule="nonzero" fill="#E53935">
            <g id="ic_picture_as_pdf_black_48px" transform="translate(776.000000, 795.000000)">
                <path d="M19.25,0 L2.75,0 C1.2375,0 0,1.2375 0,2.75 L0,19.25 C0,20.7625 1.2375,22 2.75,22 L19.25,22 C20.7625,22 22,20.7625 22,19.25 L22,2.75 C22,1.2375 20.7625,0 19.25,0 Z M7.5625,10.3125 C7.5625,11.45375 6.64125,12.375 5.5,12.375 L4.125,12.375 L4.125,15.125 L2.0625,15.125 L2.0625,6.875 L5.5,6.875 C6.64125,6.875 7.5625,7.79625 7.5625,8.9375 L7.5625,10.3125 Z M14.4375,13.0625 C14.4375,14.20375 13.51625,15.125 12.375,15.125 L8.9375,15.125 L8.9375,6.875 L12.375,6.875 C13.51625,6.875 14.4375,7.79625 14.4375,8.9375 L14.4375,13.0625 Z M19.9375,8.9375 L17.875,8.9375 L17.875,10.3125 L19.9375,10.3125 L19.9375,12.375 L17.875,12.375 L17.875,15.125 L15.8125,15.125 L15.8125,6.875 L19.9375,6.875 L19.9375,8.9375 Z M4.125,10.3125 L5.5,10.3125 L5.5,8.9375 L4.125,8.9375 L4.125,10.3125 Z M11,13.0625 L12.375,13.0625 L12.375,8.9375 L11,8.9375 L11,13.0625 Z" id="Shape"></path>
            </g>
        </g>
    </g>
</svg>