<?xml version="1.0" encoding="UTF-8" standalone="no"?>
<svg width="22px" height="22px" viewBox="0 0 22 22" version="1.1" xmlns="http://www.w3.org/2000/svg" xmlns:xlink="http://www.w3.org/1999/xlink">
    <!-- Generator: Sketch 42 (36781) - http://www.bohemiancoding.com/sketch -->
    <title>Shape</title>
    <desc>Created with Sketch.</desc>
    <defs></defs>
    <g id="Desktop-HD" stroke="none" stroke-width="1" fill="none" fill-rule="evenodd">
        <g id="Careers-Posting---Desktop-HD" transform="translate(-850.000000, -760.000000)" fill-rule="nonzero" fill="#812822">
            <g id="Page-Content" transform="translate(148.000000, 215.000000)">
                <g id="Contact-Form" transform="translate(1.000000, 0.000000)">
                    <path d="M720.25,545 L703.75,545 C702.2375,545 701,546.2375 701,547.75 L701,564.25 C701,565.7625 702.2375,567 703.75,567 L720.25,567 C721.7625,567 723,565.7625 723,564.25 L723,547.75 C723,546.2375 721.7625,545 720.25,545 Z M708.5625,555.3125 C708.5625,556.45375 707.64125,557.375 706.5,557.375 L705.125,557.375 L705.125,560.125 L703.0625,560.125 L703.0625,551.875 L706.5,551.875 C707.64125,551.875 708.5625,552.79625 708.5625,553.9375 L708.5625,555.3125 Z M715.4375,558.0625 C715.4375,559.20375 714.51625,560.125 713.375,560.125 L709.9375,560.125 L709.9375,551.875 L713.375,551.875 C714.51625,551.875 715.4375,552.79625 715.4375,553.9375 L715.4375,558.0625 Z M720.9375,553.9375 L718.875,553.9375 L718.875,555.3125 L720.9375,555.3125 L720.9375,557.375 L718.875,557.375 L718.875,560.125 L716.8125,560.125 L716.8125,551.875 L720.9375,551.875 L720.9375,553.9375 Z M705.125,555.3125 L706.5,555.3125 L706.5,553.9375 L705.125,553.9375 L705.125,555.3125 Z M712,558.0625 L713.375,558.0625 L713.375,553.9375 L712,553.9375 L712,558.0625 Z" id="Shape"></path>
                </g>
            </g>
        </g>
    </g>
</svg>