<?xml version="1.0" encoding="UTF-8"?>
<svg width="22px" height="22px" viewBox="0 0 22 22" version="1.1" xmlns="http://www.w3.org/2000/svg" xmlns:xlink="http://www.w3.org/1999/xlink">
    <!-- Generator: Sketch 42 (36781) - http://www.bohemiancoding.com/sketch -->
    <title>Combined Shape</title>
    <desc>Created with Sketch.</desc>
    <defs></defs>
    <g id="Desktop-HD" stroke="none" stroke-width="1" fill="none" fill-rule="evenodd">
        <g id="Careers-Posting---Desktop-HD" transform="translate(-850.000000, -760.000000)" fill-rule="nonzero" fill="#812822">
            <g id="Page-Content" transform="translate(148.000000, 215.000000)">
                <g id="Contact-Form" transform="translate(1.000000, 0.000000)">
                    <path d="M720.25,545 C721.7625,545 723,546.2375 723,547.75 L723,564.25 C723,565.7625 721.7625,567 720.25,567 L703.75,567 C702.2375,567 701,565.7625 701,564.25 L701,547.75 C701,546.2375 702.2375,545 703.75,545 L720.25,545 Z M708.662688,551 L705,551 L705,551.277255 C705.437774,551.301576 705.760019,551.477899 705.966745,551.806229 C706.173472,552.13456 706.541926,553.018606 707.072119,554.458395 L708.356248,557.953271 L709.428789,561.061449 L709.654971,561.061449 L711.953271,554.73565 L713.733542,559.332251 L714.339126,561.061449 L714.565308,561.061449 L715.462739,558.347265 L716.082916,556.63266 L717.673486,552.189279 C717.799954,551.843924 717.989653,551.600721 718.242589,551.45966 C718.383649,551.37697 718.58794,551.316169 718.855469,551.277255 L718.855469,551 L715.893215,551 L715.893215,551.277255 C716.185064,551.286984 716.403947,551.323464 716.549872,551.386698 C716.812536,551.49371 716.943866,551.685841 716.943866,551.963097 C716.943866,552.040924 716.931706,552.143069 716.907385,552.269537 C716.868472,552.493288 716.795511,552.748653 716.6885,553.035638 L714.820675,558.106491 L712.661002,552.503016 C712.583175,552.298721 712.534534,552.163743 712.515078,552.098077 C712.495621,552.032411 712.485893,551.955802 712.485893,551.868247 C712.485893,551.610447 712.597767,551.440204 712.821518,551.357513 C712.962578,551.308872 713.220375,551.282119 713.594914,551.277255 L713.594914,551 L709.596601,551 L709.596601,551.277255 C709.912771,551.282119 710.148679,551.3186 710.304332,551.386698 C710.566996,551.498574 710.763991,551.719889 710.895323,552.050652 L711.603054,553.852811 L710.012484,558.07001 L707.852811,552.451942 C707.799305,552.306018 707.759177,552.186848 707.732424,552.094429 C707.705671,552.00201 707.692295,551.90716 707.692295,551.809877 C707.692295,551.59099 707.804169,551.440204 708.02792,551.357513 C708.154388,551.313736 708.365975,551.286984 708.662688,551.277255 L708.662688,551 Z" id="Combined-Shape"></path>
                </g>
            </g>
        </g>
    </g>
</svg>